<?xml version="1.0" standalone="no"?>
<!DOCTYPE svg PUBLIC "-//W3C//DTD SVG 20010904//EN"
 "http://www.w3.org/TR/2001/REC-SVG-20010904/DTD/svg10.dtd">
<svg version="1.0" xmlns="http://www.w3.org/2000/svg"
 width="2445.000000pt" height="2445.000000pt" viewBox="0 0 2445.000000 2445.000000"
 preserveAspectRatio="xMidYMid meet">
<metadata>
Created by potrace 1.11, written by Peter Selinger 2001-2013
</metadata>
<g transform="translate(0.000000,2445.000000) scale(0.100000,-0.100000)"
fill="#000000" stroke="none">
<path d="M180 12305 l0 -9455 2610 0 2610 0 0 6805 0 6805 2285 0 2285 0 0
-2260 0 -2260 2285 0 2285 0 0 2260 0 2260 2285 0 2285 0 0 -6805 0 -6805
2615 0 2615 0 0 9455 0 9455 -12080 0 -12080 0 0 -9455z"/>
<path d="M9970 5110 l0 -2260 2285 0 2285 0 0 2260 0 2260 -2285 0 -2285 0 0
-2260z"/>
</g>
</svg>
