<?xml version="1.0" standalone="no"?>
<!DOCTYPE svg PUBLIC "-//W3C//DTD SVG 20010904//EN"
 "http://www.w3.org/TR/2001/REC-SVG-20010904/DTD/svg10.dtd">
<svg version="1.0" xmlns="http://www.w3.org/2000/svg"
 width="1068.000000pt" height="1068.000000pt" viewBox="0 0 1068.000000 1068.000000"
 preserveAspectRatio="xMidYMid meet">
<metadata>
Created by potrace 1.11, written by Peter Selinger 2001-2013
</metadata>
<g transform="translate(0.000000,1068.000000) scale(0.100000,-0.100000)"
fill="#000000" stroke="none">
<path d="M210 10630 c0 -5 9 -10 21 -10 11 0 17 5 14 10 -3 6 -13 10 -21 10
-8 0 -14 -4 -14 -10z"/>
<path d="M850 10630 c0 -5 7 -10 15 -10 8 0 15 5 15 10 0 6 -7 10 -15 10 -8 0
-15 -4 -15 -10z"/>
<path d="M1490 10630 c0 -5 7 -10 15 -10 8 0 15 5 15 10 0 6 -7 10 -15 10 -8
0 -15 -4 -15 -10z"/>
<path d="M2130 10630 c0 -5 7 -10 15 -10 8 0 15 5 15 10 0 6 -7 10 -15 10 -8
0 -15 -4 -15 -10z"/>
<path d="M2770 10630 c0 -5 7 -10 15 -10 8 0 15 5 15 10 0 6 -7 10 -15 10 -8
0 -15 -4 -15 -10z"/>
<path d="M3410 10630 c0 -5 7 -10 15 -10 8 0 15 5 15 10 0 6 -7 10 -15 10 -8
0 -15 -4 -15 -10z"/>
<path d="M4050 10630 c0 -5 7 -10 15 -10 8 0 15 5 15 10 0 6 -7 10 -15 10 -8
0 -15 -4 -15 -10z"/>
<path d="M4690 10630 c0 -5 7 -10 15 -10 8 0 15 5 15 10 0 6 -7 10 -15 10 -8
0 -15 -4 -15 -10z"/>
<path d="M5330 10630 c0 -5 7 -10 15 -10 8 0 15 5 15 10 0 6 -7 10 -15 10 -8
0 -15 -4 -15 -10z"/>
<path d="M5960 10630 c0 -5 7 -10 15 -10 8 0 15 5 15 10 0 6 -7 10 -15 10 -8
0 -15 -4 -15 -10z"/>
<path d="M6600 10630 c0 -5 7 -10 15 -10 8 0 15 5 15 10 0 6 -7 10 -15 10 -8
0 -15 -4 -15 -10z"/>
<path d="M7240 10630 c0 -5 7 -10 15 -10 8 0 15 5 15 10 0 6 -7 10 -15 10 -8
0 -15 -4 -15 -10z"/>
<path d="M7880 10630 c0 -5 7 -10 15 -10 8 0 15 5 15 10 0 6 -7 10 -15 10 -8
0 -15 -4 -15 -10z"/>
<path d="M8520 10630 c0 -5 5 -10 10 -10 6 0 10 5 10 10 0 6 -4 10 -10 10 -5
0 -10 -4 -10 -10z"/>
<path d="M9150 10630 c0 -5 7 -10 15 -10 8 0 15 5 15 10 0 6 -7 10 -15 10 -8
0 -15 -4 -15 -10z"/>
<path d="M9790 10630 c0 -5 7 -10 15 -10 8 0 15 5 15 10 0 6 -7 10 -15 10 -8
0 -15 -4 -15 -10z"/>
<path d="M10440 10630 c0 -5 5 -10 10 -10 6 0 10 5 10 10 0 6 -4 10 -10 10 -5
0 -10 -4 -10 -10z"/>
<path d="M210 9990 c0 -5 6 -10 14 -10 8 0 18 5 21 10 3 6 -3 10 -14 10 -12 0
-21 -4 -21 -10z"/>
<path d="M850 9990 c0 -5 7 -10 15 -10 8 0 15 5 15 10 0 6 -7 10 -15 10 -8 0
-15 -4 -15 -10z"/>
<path d="M1490 9990 c0 -5 7 -10 15 -10 8 0 15 5 15 10 0 6 -7 10 -15 10 -8 0
-15 -4 -15 -10z"/>
<path d="M2140 9990 c0 -5 5 -10 10 -10 6 0 10 5 10 10 0 6 -4 10 -10 10 -5 0
-10 -4 -10 -10z"/>
<path d="M2780 9990 c0 -5 5 -10 10 -10 6 0 10 5 10 10 0 6 -4 10 -10 10 -5 0
-10 -4 -10 -10z"/>
<path d="M3410 9990 c0 -5 4 -10 9 -10 6 0 13 5 16 10 3 6 -1 10 -9 10 -9 0
-16 -4 -16 -10z"/>
<path d="M4055 9990 c3 -5 8 -10 11 -10 2 0 4 5 4 10 0 6 -5 10 -11 10 -5 0
-7 -4 -4 -10z"/>
<path d="M4690 9990 c0 -5 4 -10 9 -10 6 0 13 5 16 10 3 6 -1 10 -9 10 -9 0
-16 -4 -16 -10z"/>
<path d="M5330 9990 c0 -5 4 -10 9 -10 6 0 13 5 16 10 3 6 -1 10 -9 10 -9 0
-16 -4 -16 -10z"/>
<path d="M6600 9990 c0 -5 4 -10 9 -10 6 0 13 5 16 10 3 6 -1 10 -9 10 -9 0
-16 -4 -16 -10z"/>
<path d="M7240 9990 c0 -5 5 -10 10 -10 6 0 10 5 10 10 0 6 -4 10 -10 10 -5 0
-10 -4 -10 -10z"/>
<path d="M7880 9990 c0 -5 7 -10 15 -10 8 0 15 5 15 10 0 6 -7 10 -15 10 -8 0
-15 -4 -15 -10z"/>
<path d="M8520 9990 c0 -5 5 -10 10 -10 6 0 10 5 10 10 0 6 -4 10 -10 10 -5 0
-10 -4 -10 -10z"/>
<path d="M9160 9990 c0 -5 5 -10 10 -10 6 0 10 5 10 10 0 6 -4 10 -10 10 -5 0
-10 -4 -10 -10z"/>
<path d="M9800 9989 c0 -5 5 -7 10 -4 6 3 10 8 10 11 0 2 -4 4 -10 4 -5 0 -10
-5 -10 -11z"/>
<path d="M10440 9990 c0 -5 5 -10 10 -10 6 0 10 5 10 10 0 6 -4 10 -10 10 -5
0 -10 -4 -10 -10z"/>
<path d="M215 9350 c3 -5 10 -10 16 -10 5 0 9 5 9 10 0 6 -7 10 -16 10 -8 0
-12 -4 -9 -10z"/>
<path d="M865 9350 c3 -5 8 -10 11 -10 2 0 4 5 4 10 0 6 -5 10 -11 10 -5 0 -7
-4 -4 -10z"/>
<path d="M3418 9353 c7 -3 16 -2 19 1 4 3 -2 6 -13 5 -11 0 -14 -3 -6 -6z"/>
<path d="M4698 9353 c7 -3 16 -2 19 1 4 3 -2 6 -13 5 -11 0 -14 -3 -6 -6z"/>
<path d="M5340 9349 c0 -5 5 -7 10 -4 6 3 10 8 10 11 0 2 -4 4 -10 4 -5 0 -10
-5 -10 -11z"/>
<path d="M8520 9350 c0 -5 5 -10 10 -10 6 0 10 5 10 10 0 6 -4 10 -10 10 -5 0
-10 -4 -10 -10z"/>
<path d="M9160 9349 c0 -5 5 -7 10 -4 6 3 10 8 10 11 0 2 -4 4 -10 4 -5 0 -10
-5 -10 -11z"/>
<path d="M9800 9349 c0 -5 5 -7 10 -4 6 3 10 8 10 11 0 2 -4 4 -10 4 -5 0 -10
-5 -10 -11z"/>
<path d="M10440 9349 c0 -5 5 -7 10 -4 6 3 10 8 10 11 0 2 -4 4 -10 4 -5 0
-10 -5 -10 -11z"/>
<path d="M218 8708 c9 -9 15 -9 24 0 9 9 7 12 -12 12 -19 0 -21 -3 -12 -12z"/>
<path d="M860 8710 c0 -5 5 -10 10 -10 6 0 10 5 10 10 0 6 -4 10 -10 10 -5 0
-10 -4 -10 -10z"/>
<path d="M1498 8713 c7 -3 16 -2 19 1 4 3 -2 6 -13 5 -11 0 -14 -3 -6 -6z"/>
<path d="M2140 8710 c0 -5 5 -10 10 -10 6 0 10 5 10 10 0 6 -4 10 -10 10 -5 0
-10 -4 -10 -10z"/>
<path d="M2778 8713 c7 -3 16 -2 19 1 4 3 -2 6 -13 5 -11 0 -14 -3 -6 -6z"/>
<path d="M3418 8713 c7 -3 16 -2 19 1 4 3 -2 6 -13 5 -11 0 -14 -3 -6 -6z"/>
<path d="M4058 8713 c7 -3 16 -2 19 1 4 3 -2 6 -13 5 -11 0 -14 -3 -6 -6z"/>
<path d="M4698 8713 c7 -3 16 -2 19 1 4 3 -2 6 -13 5 -11 0 -14 -3 -6 -6z"/>
<path d="M5338 8713 c7 -3 16 -2 19 1 4 3 -2 6 -13 5 -11 0 -14 -3 -6 -6z"/>
<path d="M5968 8713 c7 -3 16 -2 19 1 4 3 -2 6 -13 5 -11 0 -14 -3 -6 -6z"/>
<path d="M6608 8713 c7 -3 16 -2 19 1 4 3 -2 6 -13 5 -11 0 -14 -3 -6 -6z"/>
<path d="M7248 8713 c7 -3 16 -2 19 1 4 3 -2 6 -13 5 -11 0 -14 -3 -6 -6z"/>
<path d="M7888 8713 c7 -3 16 -2 19 1 4 3 -2 6 -13 5 -11 0 -14 -3 -6 -6z"/>
<path d="M9160 8710 c0 -5 5 -10 10 -10 6 0 10 5 10 10 0 6 -4 10 -10 10 -5 0
-10 -4 -10 -10z"/>
<path d="M9800 8709 c0 -5 5 -7 10 -4 6 3 10 8 10 11 0 2 -4 4 -10 4 -5 0 -10
-5 -10 -11z"/>
<path d="M10440 8709 c0 -5 5 -7 10 -4 6 3 10 8 10 11 0 2 -4 4 -10 4 -5 0
-10 -5 -10 -11z"/>
<path d="M218 8068 c9 -9 15 -9 24 0 9 9 7 12 -12 12 -19 0 -21 -3 -12 -12z"/>
<path d="M850 8076 c0 -2 7 -6 15 -10 8 -3 15 -1 15 4 0 6 -7 10 -15 10 -8 0
-15 -2 -15 -4z"/>
<path d="M1498 8073 c7 -3 16 -2 19 1 4 3 -2 6 -13 5 -11 0 -14 -3 -6 -6z"/>
<path d="M2778 8073 c7 -3 16 -2 19 1 4 3 -2 6 -13 5 -11 0 -14 -3 -6 -6z"/>
<path d="M4058 8073 c7 -3 16 -2 19 1 4 3 -2 6 -13 5 -11 0 -14 -3 -6 -6z"/>
<path d="M4698 8073 c7 -3 16 -2 19 1 4 3 -2 6 -13 5 -11 0 -14 -3 -6 -6z"/>
<path d="M5338 8073 c7 -3 16 -2 19 1 4 3 -2 6 -13 5 -11 0 -14 -3 -6 -6z"/>
<path d="M5968 8073 c7 -3 16 -2 19 1 4 3 -2 6 -13 5 -11 0 -14 -3 -6 -6z"/>
<path d="M6608 8073 c7 -3 16 -2 19 1 4 3 -2 6 -13 5 -11 0 -14 -3 -6 -6z"/>
<path d="M7248 8073 c7 -3 16 -2 19 1 4 3 -2 6 -13 5 -11 0 -14 -3 -6 -6z"/>
<path d="M7888 8073 c7 -3 16 -2 19 1 4 3 -2 6 -13 5 -11 0 -14 -3 -6 -6z"/>
<path d="M9155 8070 c4 -6 11 -8 16 -5 14 9 11 15 -7 15 -8 0 -12 -5 -9 -10z"/>
<path d="M9795 8070 c4 -6 11 -8 16 -5 14 9 11 15 -7 15 -8 0 -12 -5 -9 -10z"/>
<path d="M10440 8069 c0 -5 5 -7 10 -4 6 3 10 8 10 11 0 2 -4 4 -10 4 -5 0
-10 -5 -10 -11z"/>
<path d="M201 7542 c-5 -2 -7 -12 -4 -22 5 -20 19 -20 654 -20 l648 0 0 -57
c0 -32 5 -98 10 -148 6 -49 11 -181 11 -292 0 -184 -2 -203 -17 -203 -15 0
-15 -1 -1 -12 13 -11 18 -60 27 -301 11 -298 9 -326 -27 -328 -10 -1 -7 -4 8
-8 29 -8 29 -15 15 -272 -5 -92 -4 -147 3 -168 14 -40 0 -180 -20 -192 -10 -6
-10 -9 0 -9 18 0 18 -626 0 -633 -10 -4 -10 -6 0 -6 18 -1 18 -627 0 -634 -10
-4 -10 -6 0 -6 15 -1 17 -117 2 -126 -13 -8 -13 -172 0 -180 6 -3 10 -17 10
-31 0 -13 5 -24 10 -24 6 0 10 -46 10 -119 0 -112 -1 -121 -22 -135 l-22 -16
22 -23 c22 -23 22 -29 22 -295 l0 -272 -670 0 -670 0 0 -24 c0 -13 6 -26 12
-28 7 -2 76 0 153 4 77 5 221 7 320 4 99 -3 187 -5 195 -4 126 5 572 3 624 -4
45 -5 73 -5 81 2 15 13 753 11 761 -2 3 -4 13 -4 23 2 17 9 1877 8 2653 -1
319 -4 327 -4 345 -26 23 -26 65 -21 78 10 10 22 15 22 235 24 124 2 258 -2
299 -7 50 -7 78 -7 86 0 14 12 495 8 558 -5 24 -5 37 -4 37 4 0 7 367 10 1260
8 1246 -2 1259 -2 1274 -22 16 -20 16 -20 34 3 l18 23 594 -5 c327 -3 609 -6
625 -6 45 1 66 10 63 28 -3 16 -56 17 -646 20 l-644 2 5 443 c2 243 7 552 10
687 3 135 1 252 -3 260 -5 9 -11 362 -15 786 -3 423 -6 787 -7 809 -1 22 2
159 5 304 6 234 5 270 -10 310 -15 40 -18 102 -21 439 l-4 393 579 -5 c318 -3
600 -7 626 -9 26 -2 50 0 53 5 3 4 -1 8 -10 8 -8 0 -16 5 -18 12 -6 18 -131
26 -394 27 -464 2 -834 13 -834 27 0 14 -28 27 -41 18 -5 -3 -9 -12 -9 -20 0
-14 -98 -15 -907 -9 -500 3 -1095 10 -1323 15 -228 5 -666 10 -972 10 -397 0
-565 4 -583 12 -18 8 -32 8 -48 1 -15 -7 -231 -8 -682 -2 -622 8 -4415 17
-4434 11z m4900 -58 l216 -5 7 -262 c3 -144 8 -285 12 -313 9 -84 21 -81 -323
-79 -272 2 -304 4 -372 23 -87 26 -121 28 -121 8 0 -24 -131 -27 -1578 -32
-1104 -4 -1373 -2 -1377 8 -2 7 -5 161 -7 341 l-3 329 1665 -6 c916 -4 1762
-9 1881 -12z m839 -18 c0 -8 -5 -36 -10 -63 -6 -26 -17 -79 -24 -118 -15 -75
-30 -140 -77 -328 -16 -66 -29 -121 -29 -123 0 -2 -94 -4 -209 -4 l-208 0 -7
273 c-4 149 -8 296 -10 325 l-2 52 288 0 c243 0 288 -2 288 -14z m2572 -22
c14 -14 21 -14 32 -4 17 13 304 15 499 4 l107 -7 2 -213 c2 -118 3 -256 3
-306 l0 -93 -265 4 c-146 3 -285 6 -310 7 -25 2 -54 3 -65 2 -11 0 -456 -2
-989 -4 l-969 -4 6 37 c4 21 12 58 18 83 6 25 13 60 16 78 3 18 9 35 14 38 5
3 9 18 9 34 0 16 4 31 9 34 5 3 12 22 15 41 3 19 9 51 12 70 3 19 10 38 15 41
5 3 9 18 9 34 0 16 5 32 10 35 6 3 10 17 10 31 0 14 6 37 14 52 l14 27 883 -3
c799 -2 884 -4 901 -18z m-3209 -660 l37 -7 0 -271 0 -271 -68 117 c-37 65
-85 143 -107 173 -47 65 -194 195 -261 230 l-46 25 183 3 c101 1 193 3 204 5
11 1 37 -1 58 -4z m474 -16 c-3 -13 -13 -54 -23 -93 -9 -38 -20 -79 -24 -90
-4 -11 -13 -40 -20 -65 -37 -134 -59 -202 -69 -215 -5 -5 -12 -32 -16 -60 -4
-27 -17 -84 -30 -125 -13 -41 -31 -102 -40 -135 -19 -65 -29 -99 -41 -130 -4
-11 -6 -26 -5 -32 1 -7 -3 -13 -9 -13 -5 0 -10 -9 -10 -20 0 -11 -7 -37 -16
-58 -9 -20 -16 -53 -15 -72 0 -19 -3 -46 -8 -60 -5 -14 -14 -45 -21 -70 -7
-25 -16 -54 -20 -65 -4 -11 -10 97 -12 240 -3 143 -6 283 -7 310 -7 255 -11
750 -7 761 4 11 44 14 202 14 l196 0 -5 -22z m2700 -577 c1 -326 -1 -600 -4
-608 -5 -12 -79 -14 -532 -10 -516 5 -545 6 -567 19 -11 7 -51 5 -169 -10 -38
-5 -182 -8 -320 -8 l-250 1 -14 30 c-12 23 -16 87 -19 275 -4 219 -3 247 12
259 15 13 15 15 0 32 -15 16 -15 30 -4 136 9 86 10 147 3 223 -12 125 -4 237
17 250 9 6 386 9 930 7 l915 -2 2 -594z m283 589 c14 -4 18 -9 10 -9 -45 -4
-155 -115 -207 -211 -22 -39 -39 -39 -36 0 17 228 15 219 37 223 37 7 170 5
196 -3z m-6450 -24 c-30 -13 -116 -49 -190 -80 -74 -31 -153 -68 -175 -81 -45
-26 -227 -212 -292 -298 -23 -30 -47 -76 -54 -101 -6 -26 -15 -49 -19 -51 -8
-5 -19 598 -12 623 3 9 92 12 401 12 l396 0 -55 -24z m1749 -15 c-30 -21 -103
-69 -164 -106 -60 -36 -127 -81 -150 -98 -71 -56 -155 -150 -177 -199 -7 -16
-15 -28 -19 -28 -3 0 -11 -16 -19 -35 -25 -64 -94 -59 -134 8 -34 59 -65 94
-194 230 -148 155 -169 173 -265 224 l-82 42 629 1 629 0 -54 -39z m5101 6 c0
-43 -8 -50 -34 -32 -11 8 -29 15 -39 15 -10 0 -15 5 -12 10 3 6 -2 10 -12 10
-10 0 -27 7 -37 15 -18 14 -13 15 57 15 l77 0 0 -33z m-2600 -42 c0 -63 -1
-65 -20 -53 -25 16 -26 59 -4 93 9 14 18 25 20 25 2 0 4 -29 4 -65z m-2830
-248 c0 -2 -12 -14 -27 -28 l-28 -24 24 28 c23 25 31 32 31 24z m-865 -602
c80 -30 146 -74 163 -109 6 -14 18 -38 24 -52 16 -33 15 -211 -1 -227 -6 -6
-11 -18 -11 -27 0 -21 -23 -70 -32 -70 -5 0 -8 -6 -8 -14 0 -15 -75 -96 -89
-96 -5 0 -16 -6 -23 -12 -7 -7 -24 -18 -38 -24 -70 -33 -101 -39 -190 -38
-101 1 -155 18 -210 67 -89 79 -122 239 -72 351 12 27 22 56 22 66 0 25 51 91
99 130 104 82 240 103 366 55z m1465 -53 c78 -37 109 -64 149 -129 51 -84 78
-221 52 -271 -5 -9 -14 -28 -20 -43 -19 -40 -90 -109 -114 -109 -7 0 -19 -6
-25 -12 -20 -20 -216 -16 -275 5 -135 48 -206 119 -246 246 -30 92 2 198 82
273 20 19 36 26 51 22 12 -3 48 7 86 25 86 40 165 38 260 -7z m-518 -347 c33
-110 130 -203 270 -257 64 -24 248 -31 291 -10 15 6 38 17 52 24 32 15 87 65
111 103 l19 29 5 -169 c3 -94 4 -175 2 -182 -4 -12 -62 -32 -162 -55 -32 -7
-116 -12 -200 -12 -116 1 -160 5 -222 22 -88 25 -182 64 -193 81 -3 7 -3 130
2 274 4 144 9 246 10 227 2 -19 8 -53 15 -75z m-736 -361 l6 -101 -28 -20
c-67 -46 -216 -105 -240 -96 -8 3 -32 -2 -54 -11 -45 -18 -194 -22 -263 -7
-23 5 -68 15 -101 22 -32 7 -60 18 -62 24 -3 6 -3 107 -2 224 3 197 4 212 18
185 19 -36 38 -61 69 -88 13 -12 29 -25 35 -31 6 -5 22 -15 36 -21 14 -6 37
-17 53 -24 36 -18 203 -18 248 -1 86 33 129 61 194 126 l70 70 7 -75 c4 -41
10 -120 14 -176z m6114 -34 c0 -5 -2 -10 -4 -10 -3 0 -8 5 -11 10 -3 6 -1 10
4 10 6 0 11 -4 11 -10z m-5290 -131 c154 -50 157 -51 325 -46 149 4 185 9 289
36 22 5 44 7 49 4 12 -8 1 -837 -15 -1088 -8 -133 -8 -180 1 -183 6 -2 11 -8
11 -13 0 -5 -161 -9 -391 -9 l-390 0 6 153 c3 83 5 184 5 222 0 39 -3 272 -6
519 -4 426 -4 448 13 441 10 -4 56 -20 103 -36z m-811 -129 c-1 -36 -1 -94 -2
-130 -1 -36 0 -168 2 -295 2 -126 0 -289 -4 -361 -5 -85 -4 -143 3 -165 6 -19
12 -77 14 -129 l3 -95 -110 -5 c-60 -3 -135 -2 -165 2 -32 4 -59 3 -64 -3 -6
-5 -98 -9 -213 -9 l-203 0 -1 93 c-1 50 -1 227 0 392 1 165 -3 378 -8 473 -6
95 -7 195 -4 223 7 58 -7 55 133 27 71 -14 232 -16 295 -5 69 13 177 50 245
84 l65 33 7 -33 c4 -17 7 -61 7 -97z m2915 -300 c3 -184 9 -356 12 -382 4 -26
1 -98 -6 -159 -10 -82 -10 -113 -1 -122 12 -12 16 -163 5 -191 -5 -14 -31 -16
-186 -16 l-180 0 7 28 c3 15 12 41 20 57 14 32 65 241 65 267 0 9 7 21 15 28
8 7 12 16 9 22 -3 5 1 20 10 33 9 13 16 39 16 57 0 33 33 78 57 78 8 0 11 4 8
10 -3 6 1 7 9 4 9 -3 16 -1 16 6 0 6 5 8 11 4 6 -3 3 9 -7 27 -10 19 -18 36
-17 39 3 15 15 94 23 153 5 39 15 76 25 87 9 10 14 24 10 30 -4 6 -2 16 3 23
5 7 10 27 10 45 0 18 6 40 12 47 6 8 9 22 6 32 -3 10 1 30 8 45 8 15 17 41 21
58 4 17 8 30 10 28 2 -2 5 -154 9 -338z m2005 313 c11 -3 18 -10 15 -15 -4 -6
4 -4 17 3 18 10 81 14 232 16 l208 3 -5 -452 c-3 -249 -5 -473 -3 -498 1 -25
2 -90 2 -145 l0 -100 -250 1 c-137 0 -551 1 -918 2 l-668 2 3 549 c4 500 6
550 21 565 9 10 17 23 17 29 0 7 12 20 28 29 25 16 80 17 654 17 344 0 635 -3
647 -6z m-3330 -1099 c19 -27 43 -57 55 -66 20 -17 18 -18 -61 -18 l-82 0 10
32 c5 18 9 62 9 98 l1 65 17 -31 c9 -16 32 -52 51 -80z m3926 15 c-3 -4 6 -19
20 -33 30 -31 31 -36 4 -31 -23 5 -69 53 -69 73 0 6 -4 12 -10 12 -5 0 -10 15
-10 33 l1 32 34 -39 c19 -21 32 -42 30 -47z m-6880 -81 l60 -40 -95 3 c-53 2
-98 7 -102 13 -9 13 -11 130 -2 138 3 4 22 -12 42 -35 20 -22 64 -58 97 -79z
m2011 -4 c-3 -9 -21 -14 -47 -14 -47 0 -47 -2 6 73 l40 56 3 -51 c2 -28 1 -57
-2 -64z m-1432 -16 c-4 -15 -17 -18 -74 -18 l-68 0 67 68 66 67 7 -50 c4 -27
5 -58 2 -67z m6886 43 l0 -60 -29 9 c-21 6 -31 5 -35 -3 -3 -8 -8 -8 -15 3 -7
11 -1 23 30 51 21 20 39 41 39 47 0 7 2 12 5 12 3 0 5 -27 5 -59z m-3089 -2
c17 -12 42 -25 57 -29 21 -6 13 -8 -35 -9 l-63 -1 0 30 c0 36 3 36 41 9z
m-2901 -44 c0 -4 -10 -5 -22 -3 -17 2 -24 11 -26 32 l-4 28 26 -25 c14 -14 26
-29 26 -32z m3396 20 c-3 -8 -15 -15 -27 -15 l-22 0 24 26 c23 24 37 19 25
-11z m1974 -17 c0 -11 -21 -10 -39 1 -8 5 -11 16 -7 26 6 17 8 17 26 0 11 -10
20 -22 20 -27z m-4834 -53 c18 -12 24 -12 40 0 16 11 114 14 563 14 l543 1 -5
-42 c-6 -52 -16 -96 -26 -123 -17 -42 -31 -92 -31 -108 0 -10 -4 -25 -9 -35
-8 -16 -30 -77 -74 -209 l-21 -63 -1568 0 -1568 0 2 278 3 277 363 3 c357 2
364 2 369 -18 7 -25 11 -25 31 0 17 20 28 21 606 25 323 2 591 6 594 9 13 13
168 6 188 -9z m2268 9 c14 -5 16 -40 16 -290 l0 -284 -275 0 -275 0 5 28 c18
87 76 262 122 365 19 43 39 103 46 133 l11 54 167 0 c92 0 174 -3 183 -6z
m598 -8 c13 -8 23 -8 38 2 15 9 128 12 467 11 450 -1 1256 -13 1518 -24 235
-9 245 -10 408 -1 l157 8 0 -281 0 -281 -1565 0 -1565 0 0 289 0 289 262 0
c172 -1 269 -5 280 -12z"/>
<path d="M7888 7433 c7 -3 16 -2 19 1 4 3 -2 6 -13 5 -11 0 -14 -3 -6 -6z"/>
<path d="M7248 6153 c7 -3 16 -2 19 1 4 3 -2 6 -13 5 -11 0 -14 -3 -6 -6z"/>
<path d="M7888 6153 c7 -3 16 -2 19 1 4 3 -2 6 -13 5 -11 0 -14 -3 -6 -6z"/>
<path d="M2778 5513 c7 -3 16 -2 19 1 4 3 -2 6 -13 5 -11 0 -14 -3 -6 -6z"/>
<path d="M4058 5513 c7 -3 16 -2 19 1 4 3 -2 6 -13 5 -11 0 -14 -3 -6 -6z"/>
<path d="M210 7436 c0 -2 7 -6 15 -10 8 -3 15 -1 15 4 0 6 -7 10 -15 10 -8 0
-15 -2 -15 -4z"/>
<path d="M865 7430 c3 -5 8 -10 11 -10 2 0 4 5 4 10 0 6 -5 10 -11 10 -5 0 -7
-4 -4 -10z"/>
<path d="M228 6793 c7 -3 16 -2 19 1 4 3 -2 6 -13 5 -11 0 -14 -3 -6 -6z"/>
<path d="M858 6793 c7 -3 16 -2 19 1 4 3 -2 6 -13 5 -11 0 -14 -3 -6 -6z"/>
<path d="M10448 6793 c7 -3 16 -2 19 1 4 3 -2 6 -13 5 -11 0 -14 -3 -6 -6z"/>
<path d="M218 6153 c7 -3 16 -2 19 1 4 3 -2 6 -13 5 -11 0 -14 -3 -6 -6z"/>
<path d="M858 6153 c7 -3 16 -2 19 1 4 3 -2 6 -13 5 -11 0 -14 -3 -6 -6z"/>
<path d="M9798 6153 c7 -3 16 -2 19 1 4 3 -2 6 -13 5 -11 0 -14 -3 -6 -6z"/>
<path d="M218 5513 c7 -3 16 -2 19 1 4 3 -2 6 -13 5 -11 0 -14 -3 -6 -6z"/>
<path d="M858 5513 c7 -3 16 -2 19 1 4 3 -2 6 -13 5 -11 0 -14 -3 -6 -6z"/>
<path d="M225 3600 c-3 -5 -1 -10 4 -10 6 0 11 5 11 10 0 6 -2 10 -4 10 -3 0
-8 -4 -11 -10z"/>
<path d="M5702 2878 c5 -15 28 -23 28 -10 0 5 -7 13 -16 16 -10 4 -14 1 -12
-6z"/>
</g>
</svg>
